<svg height="384pt" viewBox="0 -24 384 384" width="384pt" xmlns="http://www.w3.org/2000/svg"><path d="m366.175781 10.6875c-11.320312-9.160156-25.96875-12.65625-40.230469-9.617188-.417968.097657-.824218.195313-1.21875.3125l-183.070312 54.617188h-61.65625c-44.113281 0-80 35.886719-80 80 0 38.632812 27.527344 70.953125 64 78.382812v89.617188c0 17.648438 14.351562 32 32 32h32c17.648438 0 32-14.351562 32-32v-82.527344l164.726562 49.144532c.402344.117187.808594.214843 1.21875.308593 3.367188.722657 6.765626 1.074219 10.125 1.074219 10.867188 0 21.464844-3.695312 30.113282-10.6875 11.320312-9.152344 17.816406-22.761719 17.816406-37.328125v-175.96875c0-14.566406-6.496094-28.175781-17.824219-37.328125zm-334.175781 125.3125c0-26.472656 21.527344-48 48-48h48v96h-48c-26.472656 0-48-21.527344-48-48zm64 168v-88h32v88zm256-80.015625c0 4.855469-2.167969 9.398437-5.945312 12.449219-3.640626 2.941406-8.328126 4.125-12.886719 3.300781l-173.167969-51.664063v-104.144531l173.167969-51.660156c4.574219-.808594 9.246093.359375 12.886719 3.300781 3.777343 3.050782 5.945312 7.59375 5.945312 12.449219zm0 0"/></svg>